<?xml version="1.0" encoding="UTF-8" standalone="no"?>
<svg width="200px" height="200px" viewBox="0 0 200 200" version="1.1" xmlns="http://www.w3.org/2000/svg" xmlns:xlink="http://www.w3.org/1999/xlink">
    <title>Offline Placeholder</title>
    <defs>
        <linearGradient x1="50%" y1="0%" x2="50%" y2="100%" id="linearGradient-1">
            <stop stop-color="#E0E0E0" offset="0%"></stop>
            <stop stop-color="#CCCCCC" offset="100%"></stop>
        </linearGradient>
    </defs>
    <g stroke="none" stroke-width="1" fill="none" fill-rule="evenodd">
        <rect fill="url(#linearGradient-1)" x="0" y="0" width="200" height="200"></rect>
        <g transform="translate(50.000000, 70.000000)" fill="#999999">
            <path d="M20,0 L80,0 C91.045695,0 100,8.954305 100,20 L100,40 C100,51.045695 91.045695,60 80,60 L20,60 C8.954305,60 0,51.045695 0,40 L0,20 C0,8.954305 8.954305,0 20,0 Z M50,13 C40.8873016,13 33.5,20.3873016 33.5,29.5 C33.5,38.6126984 40.8873016,46 50,46 C59.1126984,46 66.5,38.6126984 66.5,29.5 C66.5,20.3873016 59.1126984,13 50,13 Z" fill-rule="nonzero"></path>
            <circle cx="50" cy="29.5" r="10.5"></circle>
        </g>
        <text font-family="Arial, sans-serif" font-size="16" font-weight="normal" fill="#666666">
            <tspan x="46" y="160">Image Offline</tspan>
        </text>
    </g>
</svg>
